<svg width="14" height="14" viewBox="0 0 14 14" fill="none" xmlns="http://www.w3.org/2000/svg">
<g id="Icon">
<path fill-rule="evenodd" clip-rule="evenodd" d="M8.11753 1.87751C7.83253 0.707495 6.16747 0.707495 5.88247 1.87751C5.83991 2.05333 5.75645 2.21661 5.63887 2.35408C5.5213 2.49155 5.37292 2.59931 5.20583 2.6686C5.03873 2.7379 4.85764 2.76676 4.67728 2.75284C4.49692 2.73893 4.3224 2.68263 4.16791 2.58852C3.13888 1.96152 1.96134 3.13903 2.58836 4.16805C2.99337 4.83256 2.63411 5.69957 1.87809 5.88333C0.707303 6.16758 0.707303 7.83336 1.87809 8.11686C2.05395 8.15947 2.21727 8.243 2.35474 8.36067C2.49221 8.47833 2.59994 8.6268 2.66917 8.79399C2.7384 8.96117 2.76716 9.14234 2.75312 9.32274C2.73908 9.50314 2.68263 9.67768 2.58836 9.83214C1.96134 10.8612 3.13888 12.0387 4.16791 11.4117C4.32237 11.3174 4.49691 11.2609 4.67732 11.2469C4.85772 11.2329 5.03889 11.2616 5.20608 11.3309C5.37326 11.4001 5.52174 11.5078 5.6394 11.6453C5.75707 11.7827 5.84061 11.9461 5.88322 12.1219C6.16747 13.2927 7.83328 13.2927 8.11679 12.1219C8.15953 11.9462 8.24315 11.783 8.36085 11.6456C8.47854 11.5082 8.62699 11.4005 8.79412 11.3313C8.96126 11.2621 9.14236 11.2333 9.32272 11.2473C9.50307 11.2613 9.67759 11.3176 9.83209 11.4117C10.8611 12.0387 12.0387 10.8612 11.4116 9.83214C11.3175 9.67764 11.2612 9.50313 11.2473 9.32277C11.2333 9.14242 11.2621 8.96132 11.3313 8.79419C11.4005 8.62706 11.5082 8.47861 11.6456 8.36092C11.7829 8.24323 11.9461 8.15961 12.1219 8.11686C13.2927 7.83261 13.2927 6.16683 12.1219 5.88333C11.946 5.84072 11.7827 5.75718 11.6453 5.63952C11.5078 5.52185 11.4001 5.37338 11.3308 5.2062C11.2616 5.03902 11.2328 4.85785 11.2469 4.67745C11.2609 4.49704 11.3174 4.32251 11.4116 4.16805C12.0387 3.13903 10.8611 1.96152 9.83209 2.58852C9.67763 2.68279 9.50309 2.73924 9.32268 2.75328C9.14228 2.76732 8.96111 2.73856 8.79392 2.66933C8.62674 2.6001 8.47826 2.49237 8.3606 2.3549C8.24293 2.21744 8.15939 2.05413 8.11679 1.87826L8.11753 1.87751Z" stroke="white" stroke-width="0.666667"/>
<path d="M8.33333 7C8.33333 7.73638 7.73638 8.33333 7 8.33333C6.26362 8.33333 5.66667 7.73638 5.66667 7C5.66667 6.26362 6.26362 5.66667 7 5.66667C7.73638 5.66667 8.33333 6.26362 8.33333 7Z" stroke="white" stroke-width="0.666667"/>
</g>
</svg>
